<svg xmlns="http://www.w3.org/2000/svg" width="960" height="540" viewBox="0 0 960 540">
<ellipse cx="88" cy="181.2" rx="49.599999999999994" ry="49.599999999999994" fill="#ED7D31" stroke="#FFFFFF" stroke-width="2"/>
<rect x="19.2" y="343.2" width="137.6" height="162" rx="0" ry="0" fill="transparent" stroke="none" stroke-width="0"/>
<ellipse cx="244.79999999999995" cy="181.2" rx="49.599999999999994" ry="49.599999999999994" fill="#A5A5A5" stroke="#FFFFFF" stroke-width="2"/>
<rect x="175.99999999999997" y="343.2" width="137.6" height="162" rx="0" ry="0" fill="transparent" stroke="none" stroke-width="0"/>
<ellipse cx="401.59999999999997" cy="181.2" rx="49.599999999999994" ry="49.599999999999994" fill="#FFC000" stroke="#FFFFFF" stroke-width="2"/>
<rect x="332.79999999999995" y="343.2" width="137.6" height="162" rx="0" ry="0" fill="transparent" stroke="none" stroke-width="0"/>
<ellipse cx="558.4" cy="181.2" rx="49.599999999999994" ry="49.599999999999994" fill="#5B9BD5" stroke="#FFFFFF" stroke-width="2"/>
<rect x="489.59999999999997" y="343.2" width="137.6" height="162" rx="0" ry="0" fill="transparent" stroke="none" stroke-width="0"/>
<ellipse cx="715.1999999999999" cy="181.2" rx="49.599999999999994" ry="49.599999999999994" fill="#70AD47" stroke="#FFFFFF" stroke-width="2"/>
<rect x="646.4" y="343.2" width="137.6" height="162" rx="0" ry="0" fill="transparent" stroke="none" stroke-width="0"/>
<ellipse cx="871.9999999999999" cy="181.2" rx="49.599999999999994" ry="49.599999999999994" fill="#264478" stroke="#FFFFFF" stroke-width="2"/>
<rect x="803.1999999999999" y="343.2" width="137.6" height="162" rx="0" ry="0" fill="transparent" stroke="none" stroke-width="0"/>
</svg>
