<svg xmlns="http://www.w3.org/2000/svg" width="960" height="540" viewBox="0 0 960 540">
<rect x="28.799999999999997" y="16.2" width="384" height="71.10000000000001" rx="4" ry="4" fill="#ED7D31" stroke="#FFFFFF" stroke-width="2"/>
<rect x="451.2" y="16.2" width="432" height="71.10000000000001" rx="0" ry="0" fill="transparent" stroke="none" stroke-width="0"/>
<rect x="499.2" y="103.50000000000001" width="384" height="71.10000000000001" rx="4" ry="4" fill="#A5A5A5" stroke="#FFFFFF" stroke-width="2"/>
<rect x="28.799999999999997" y="103.50000000000001" width="432" height="71.10000000000001" rx="0" ry="0" fill="transparent" stroke="none" stroke-width="0"/>
<rect x="28.799999999999997" y="190.8" width="384" height="71.10000000000001" rx="4" ry="4" fill="#FFC000" stroke="#FFFFFF" stroke-width="2"/>
<rect x="451.2" y="190.8" width="432" height="71.10000000000001" rx="0" ry="0" fill="transparent" stroke="none" stroke-width="0"/>
<rect x="499.2" y="278.1" width="384" height="71.10000000000001" rx="4" ry="4" fill="#5B9BD5" stroke="#FFFFFF" stroke-width="2"/>
<rect x="28.799999999999997" y="278.1" width="432" height="71.10000000000001" rx="0" ry="0" fill="transparent" stroke="none" stroke-width="0"/>
<rect x="28.799999999999997" y="365.40000000000003" width="384" height="71.10000000000001" rx="4" ry="4" fill="#70AD47" stroke="#FFFFFF" stroke-width="2"/>
<rect x="451.2" y="365.40000000000003" width="432" height="71.10000000000001" rx="0" ry="0" fill="transparent" stroke="none" stroke-width="0"/>
<rect x="499.2" y="452.70000000000005" width="384" height="71.10000000000001" rx="4" ry="4" fill="#264478" stroke="#FFFFFF" stroke-width="2"/>
<rect x="28.799999999999997" y="452.70000000000005" width="432" height="71.10000000000001" rx="0" ry="0" fill="transparent" stroke="none" stroke-width="0"/>
</svg>
