<svg xmlns="http://www.w3.org/2000/svg" width="960" height="540" viewBox="0 0 960 540">
<polygon points="352.32,-20.976 486.7200000000001,-20.976 553.9200000000001,95.4144 486.7200000000001,211.8048 352.32,211.8048 285.12,95.4144" fill="#ED7D31" stroke="#FFFFFF" stroke-width="2"/>
<polygon points="553.92,-20.976 688.3199999999999,-20.976 755.52,95.4144 688.3199999999999,211.8048 553.92,211.8048 486.71999999999997,95.4144" fill="#A5A5A5" stroke="#FFFFFF" stroke-width="2"/>
<polygon points="271.68,153.6096 406.08,153.6096 473.28,270 406.08,386.3904 271.68,386.3904 204.48,270" fill="#FFC000" stroke="#FFFFFF" stroke-width="2"/>
<polygon points="473.28,153.6096 607.68,153.6096 674.88,270 607.68,386.3904 473.28,386.3904 406.08,270" fill="#5B9BD5" stroke="#FFFFFF" stroke-width="2"/>
<polygon points="352.32,328.1952 486.7200000000001,328.1952 553.9200000000001,444.5856 486.7200000000001,560.976 352.32,560.976 285.12,444.5856" fill="#70AD47" stroke="#FFFFFF" stroke-width="2"/>
<polygon points="553.92,328.1952 688.3199999999999,328.1952 755.52,444.5856 688.3199999999999,560.976 553.92,560.976 486.71999999999997,444.5856" fill="#264478" stroke="#FFFFFF" stroke-width="2"/>
</svg>
