<svg xmlns="http://www.w3.org/2000/svg" width="960" height="540" viewBox="0 0 960 540">
<path d="M 39.839999999999996 27 L 136.16 27 A 20.639999999999997 20.639999999999997 0 0 1 156.79999999999998 47.64 L 156.79999999999998 216 L 19.2 216 L 19.2 47.64 A 20.639999999999997 20.639999999999997 0 0 1 39.839999999999996 27 Z" fill="#ED7D31" stroke="#FFFFFF" stroke-width="2"/>
<rect x="19.2" y="232.2" width="137.6" height="135" rx="2" ry="2" fill="#FFFFFF" stroke="#ED7D31" stroke-width="2"/>
<ellipse cx="88" cy="459" rx="13.76" ry="13.76" fill="#ED7D31" stroke="#FFFFFF" stroke-width="2"/>
<path d="M 196.63999999999996 27 L 292.96 27 A 20.639999999999997 20.639999999999997 0 0 1 313.59999999999997 47.64 L 313.59999999999997 216 L 175.99999999999997 216 L 175.99999999999997 47.64 A 20.639999999999997 20.639999999999997 0 0 1 196.63999999999996 27 Z" fill="#A5A5A5" stroke="#FFFFFF" stroke-width="2"/>
<rect x="175.99999999999997" y="232.2" width="137.6" height="135" rx="2" ry="2" fill="#FFFFFF" stroke="#A5A5A5" stroke-width="2"/>
<ellipse cx="244.79999999999995" cy="459" rx="13.76" ry="13.76" fill="#A5A5A5" stroke="#FFFFFF" stroke-width="2"/>
<path d="M 353.43999999999994 27 L 449.76 27 A 20.639999999999997 20.639999999999997 0 0 1 470.4 47.64 L 470.4 216 L 332.79999999999995 216 L 332.79999999999995 47.64 A 20.639999999999997 20.639999999999997 0 0 1 353.43999999999994 27 Z" fill="#FFC000" stroke="#FFFFFF" stroke-width="2"/>
<rect x="332.79999999999995" y="232.2" width="137.6" height="135" rx="2" ry="2" fill="#FFFFFF" stroke="#FFC000" stroke-width="2"/>
<ellipse cx="401.59999999999997" cy="459" rx="13.76" ry="13.76" fill="#FFC000" stroke="#FFFFFF" stroke-width="2"/>
<path d="M 510.23999999999995 27 L 606.56 27 A 20.639999999999997 20.639999999999997 0 0 1 627.1999999999999 47.64 L 627.1999999999999 216 L 489.59999999999997 216 L 489.59999999999997 47.64 A 20.639999999999997 20.639999999999997 0 0 1 510.23999999999995 27 Z" fill="#5B9BD5" stroke="#FFFFFF" stroke-width="2"/>
<rect x="489.59999999999997" y="232.2" width="137.6" height="135" rx="2" ry="2" fill="#FFFFFF" stroke="#5B9BD5" stroke-width="2"/>
<ellipse cx="558.4" cy="459" rx="13.76" ry="13.76" fill="#5B9BD5" stroke="#FFFFFF" stroke-width="2"/>
<path d="M 667.04 27 L 763.36 27 A 20.639999999999997 20.639999999999997 0 0 1 784 47.64 L 784 216 L 646.4 216 L 646.4 47.64 A 20.639999999999997 20.639999999999997 0 0 1 667.04 27 Z" fill="#70AD47" stroke="#FFFFFF" stroke-width="2"/>
<rect x="646.4" y="232.2" width="137.6" height="135" rx="2" ry="2" fill="#FFFFFF" stroke="#70AD47" stroke-width="2"/>
<ellipse cx="715.1999999999999" cy="459" rx="13.76" ry="13.76" fill="#70AD47" stroke="#FFFFFF" stroke-width="2"/>
<path d="M 823.8399999999999 27 L 920.16 27 A 20.639999999999997 20.639999999999997 0 0 1 940.8 47.64 L 940.8 216 L 803.1999999999999 216 L 803.1999999999999 47.64 A 20.639999999999997 20.639999999999997 0 0 1 823.8399999999999 27 Z" fill="#264478" stroke="#FFFFFF" stroke-width="2"/>
<rect x="803.1999999999999" y="232.2" width="137.6" height="135" rx="2" ry="2" fill="#FFFFFF" stroke="#264478" stroke-width="2"/>
<ellipse cx="871.9999999999999" cy="459" rx="13.76" ry="13.76" fill="#264478" stroke="#FFFFFF" stroke-width="2"/>
</svg>
