<svg xmlns="http://www.w3.org/2000/svg" width="960" height="540" viewBox="0 0 960 540">
<rect x="28.799999999999997" y="28.799999999999997" width="126.40000000000002" height="297" rx="4" ry="4" fill="#ED7D31" stroke="#FFFFFF" stroke-width="2"/>
<rect x="28.799999999999997" y="340.2" width="126.40000000000002" height="64.8" rx="0" ry="0" fill="transparent" stroke="none" stroke-width="0"/>
<rect x="28.799999999999997" y="405" width="126.40000000000002" height="108" rx="0" ry="0" fill="transparent" stroke="none" stroke-width="0" opacity="0.7"/>
<rect x="184" y="28.799999999999997" width="126.40000000000002" height="297" rx="4" ry="4" fill="#A5A5A5" stroke="#FFFFFF" stroke-width="2"/>
<rect x="184" y="340.2" width="126.40000000000002" height="64.8" rx="0" ry="0" fill="transparent" stroke="none" stroke-width="0"/>
<rect x="184" y="405" width="126.40000000000002" height="108" rx="0" ry="0" fill="transparent" stroke="none" stroke-width="0" opacity="0.7"/>
<rect x="339.20000000000005" y="28.799999999999997" width="126.40000000000002" height="297" rx="4" ry="4" fill="#FFC000" stroke="#FFFFFF" stroke-width="2"/>
<rect x="339.20000000000005" y="340.2" width="126.40000000000002" height="64.8" rx="0" ry="0" fill="transparent" stroke="none" stroke-width="0"/>
<rect x="339.20000000000005" y="405" width="126.40000000000002" height="108" rx="0" ry="0" fill="transparent" stroke="none" stroke-width="0" opacity="0.7"/>
<rect x="494.40000000000003" y="28.799999999999997" width="126.40000000000002" height="297" rx="4" ry="4" fill="#5B9BD5" stroke="#FFFFFF" stroke-width="2"/>
<rect x="494.40000000000003" y="340.2" width="126.40000000000002" height="64.8" rx="0" ry="0" fill="transparent" stroke="none" stroke-width="0"/>
<rect x="494.40000000000003" y="405" width="126.40000000000002" height="108" rx="0" ry="0" fill="transparent" stroke="none" stroke-width="0" opacity="0.7"/>
<rect x="649.6" y="28.799999999999997" width="126.40000000000002" height="297" rx="4" ry="4" fill="#70AD47" stroke="#FFFFFF" stroke-width="2"/>
<rect x="649.6" y="340.2" width="126.40000000000002" height="64.8" rx="0" ry="0" fill="transparent" stroke="none" stroke-width="0"/>
<rect x="649.6" y="405" width="126.40000000000002" height="108" rx="0" ry="0" fill="transparent" stroke="none" stroke-width="0" opacity="0.7"/>
<rect x="804.8000000000001" y="28.799999999999997" width="126.40000000000002" height="297" rx="4" ry="4" fill="#264478" stroke="#FFFFFF" stroke-width="2"/>
<rect x="804.8000000000001" y="340.2" width="126.40000000000002" height="64.8" rx="0" ry="0" fill="transparent" stroke="none" stroke-width="0"/>
<rect x="804.8000000000001" y="405" width="126.40000000000002" height="108" rx="0" ry="0" fill="transparent" stroke="none" stroke-width="0" opacity="0.7"/>
</svg>
