<svg xmlns="http://www.w3.org/2000/svg" width="960" height="540" viewBox="0 0 960 540">
<path d="M 39.839999999999996 27 L 136.16 27 A 20.639999999999997 20.639999999999997 0 0 1 156.79999999999998 47.64 L 156.79999999999998 216 L 19.2 216 L 19.2 47.64 A 20.639999999999997 20.639999999999997 0 0 1 39.839999999999996 27 Z" fill="#ED7D31" stroke="#FFFFFF" stroke-width="2"/>
<polygon points="39.839999999999996,259.2 136.16,259.2 156.79999999999998,353.7 136.16,448.2 39.839999999999996,448.2 19.2,353.7" fill="#ED7D31" stroke="#FFFFFF" stroke-width="2"/>
<path d="M 196.63999999999996 27 L 292.96 27 A 20.639999999999997 20.639999999999997 0 0 1 313.59999999999997 47.64 L 313.59999999999997 216 L 175.99999999999997 216 L 175.99999999999997 47.64 A 20.639999999999997 20.639999999999997 0 0 1 196.63999999999996 27 Z" fill="#A5A5A5" stroke="#FFFFFF" stroke-width="2"/>
<polygon points="196.63999999999996,259.2 292.96,259.2 313.59999999999997,353.7 292.96,448.2 196.63999999999996,448.2 175.99999999999997,353.7" fill="#A5A5A5" stroke="#FFFFFF" stroke-width="2"/>
<path d="M 353.43999999999994 27 L 449.76 27 A 20.639999999999997 20.639999999999997 0 0 1 470.4 47.64 L 470.4 216 L 332.79999999999995 216 L 332.79999999999995 47.64 A 20.639999999999997 20.639999999999997 0 0 1 353.43999999999994 27 Z" fill="#FFC000" stroke="#FFFFFF" stroke-width="2"/>
<polygon points="353.43999999999994,259.2 449.76,259.2 470.4,353.7 449.76,448.2 353.43999999999994,448.2 332.79999999999995,353.7" fill="#FFC000" stroke="#FFFFFF" stroke-width="2"/>
<path d="M 510.23999999999995 27 L 606.56 27 A 20.639999999999997 20.639999999999997 0 0 1 627.1999999999999 47.64 L 627.1999999999999 216 L 489.59999999999997 216 L 489.59999999999997 47.64 A 20.639999999999997 20.639999999999997 0 0 1 510.23999999999995 27 Z" fill="#5B9BD5" stroke="#FFFFFF" stroke-width="2"/>
<polygon points="510.23999999999995,259.2 606.56,259.2 627.1999999999999,353.7 606.56,448.2 510.23999999999995,448.2 489.59999999999997,353.7" fill="#5B9BD5" stroke="#FFFFFF" stroke-width="2"/>
<path d="M 667.04 27 L 763.36 27 A 20.639999999999997 20.639999999999997 0 0 1 784 47.64 L 784 216 L 646.4 216 L 646.4 47.64 A 20.639999999999997 20.639999999999997 0 0 1 667.04 27 Z" fill="#70AD47" stroke="#FFFFFF" stroke-width="2"/>
<polygon points="667.04,259.2 763.36,259.2 784,353.7 763.36,448.2 667.04,448.2 646.4,353.7" fill="#70AD47" stroke="#FFFFFF" stroke-width="2"/>
<path d="M 823.8399999999999 27 L 920.16 27 A 20.639999999999997 20.639999999999997 0 0 1 940.8 47.64 L 940.8 216 L 803.1999999999999 216 L 803.1999999999999 47.64 A 20.639999999999997 20.639999999999997 0 0 1 823.8399999999999 27 Z" fill="#264478" stroke="#FFFFFF" stroke-width="2"/>
<polygon points="823.8399999999999,259.2 920.16,259.2 940.8,353.7 920.16,448.2 823.8399999999999,448.2 803.1999999999999,353.7" fill="#264478" stroke="#FFFFFF" stroke-width="2"/>
</svg>
