<svg xmlns="http://www.w3.org/2000/svg" width="960" height="540" viewBox="0 0 960 540">
<path d="M 517.8919056515367 91.73259976626395 A 182.25 182.25 0 0 1 592.2043038781012 126.38504015517492 L 598.0223048199286 118.9383385335914 L 608.4154258424937 154.3742312211893 L 574.7503010526189 148.72514501992544 L 580.5683019944463 141.27844339834195 A 163.35000000000002 163.35000000000002 0 0 0 513.962374695081 110.21958942013285 Z" fill="#ED7D31"/>
<path d="M 653.3300500947918 213.68165277516584 A 182.25 182.25 0 0 1 653.3300500947918 326.31834722483416 L 635.3550819368133 320.47792603114766 A 163.35000000000002 163.35000000000002 0 0 0 635.3550819368133 219.52207396885234 Z" fill="#A5A5A5"/>
<path d="M 615.4381444432552 391.9490530089019 A 182.25 182.25 0 0 1 548.27205165005 438.979257494797 L 551.8120839578303 447.74114492045317 L 515.9271401733089 439.02390540680165 L 537.6519547267088 412.6935952178286 L 541.1919870344892 421.45548264348474 A 163.35000000000002 163.35000000000002 0 0 0 601.3927072417324 379.3024845487195 Z" fill="#FFC000"/>
<path d="M 442.1080943484634 448.2674002337361 A 182.25 182.25 0 0 1 344.56185555674494 391.94905300890196 L 358.60729275826765 379.3024845487196 A 163.35000000000002 163.35000000000002 0 0 0 446.03762530491906 429.7804105798672 Z" fill="#5B9BD5"/>
<path d="M 306.6699499052082 326.31834722483416 A 182.25 182.25 0 0 1 299.5236444718488 244.63570235002805 L 290.16561122224095 243.32051654595546 L 315.6574339841975 216.60186337200903 L 327.5977442206723 248.5812597622459 L 318.2397109710645 247.2660739581733 A 163.35000000000002 163.35000000000002 0 0 0 324.64491806318665 320.47792603114766 Z" fill="#70AD47"/>
<path d="M 344.5618555567449 148.0509469910981 A 182.25 182.25 0 0 1 442.1080943484633 91.73259976626395 L 446.03762530491895 110.21958942013285 A 163.35000000000002 163.35000000000002 0 0 0 358.60729275826765 160.69751545128048 Z" fill="#264478"/>
<rect x="426" y="59.399999999999984" width="108" height="75.60000000000001" rx="8" ry="8" fill="#ED7D31" stroke="#FFFFFF" stroke-width="2"/>
<rect x="575.649189773951" y="145.8" width="108" height="75.60000000000001" rx="8" ry="8" fill="#A5A5A5" stroke="#FFFFFF" stroke-width="2"/>
<rect x="575.649189773951" y="318.59999999999997" width="108" height="75.60000000000001" rx="8" ry="8" fill="#FFC000" stroke="#FFFFFF" stroke-width="2"/>
<rect x="426" y="405" width="108" height="75.60000000000001" rx="8" ry="8" fill="#5B9BD5" stroke="#FFFFFF" stroke-width="2"/>
<rect x="276.350810226049" y="318.59999999999997" width="108" height="75.60000000000001" rx="8" ry="8" fill="#70AD47" stroke="#FFFFFF" stroke-width="2"/>
<rect x="276.350810226049" y="145.79999999999995" width="108" height="75.60000000000001" rx="8" ry="8" fill="#264478" stroke="#FFFFFF" stroke-width="2"/>
</svg>
