<svg xmlns="http://www.w3.org/2000/svg" width="960" height="540" viewBox="0 0 960 540">
<polygon points="574.8542064282834,116.10000000000002 572.8382064282835,114.08400000000002 572.8382064282835,114.88800000000002 564.8702064282834,114.88800000000002 564.8702064282834,114.08400000000002 562.8542064282834,116.10000000000002 564.8702064282834,118.11600000000003 564.8702064282834,117.31200000000003 572.8382064282835,117.31200000000003 572.8382064282835,118.11600000000003" fill="#ED7D31" transform="rotate(30.000000000000004 568.8542064282834 116.10000000000002)"/>
<polygon points="663.7084128565668,270 661.6924128565669,267.984 661.6924128565669,268.788 653.7244128565668,268.788 653.7244128565668,267.984 651.7084128565668,270 653.7244128565668,272.016 653.7244128565668,271.212 661.6924128565669,271.212 661.6924128565669,272.016" fill="#A5A5A5" transform="rotate(90 657.7084128565668 270)"/>
<polygon points="574.8542064282834,423.9 572.8382064282835,421.88399999999996 572.8382064282835,422.688 564.8702064282834,422.688 564.8702064282834,421.88399999999996 562.8542064282834,423.9 564.8702064282834,425.916 564.8702064282834,425.11199999999997 572.8382064282835,425.11199999999997 572.8382064282835,425.916" fill="#FFC000" transform="rotate(150.00000000000003 568.8542064282834 423.9)"/>
<polygon points="397.1457935717166,423.9 395.12979357171656,421.88399999999996 395.12979357171656,422.688 387.1617935717166,422.688 387.1617935717166,421.88399999999996 385.1457935717166,423.9 387.1617935717166,425.916 387.1617935717166,425.11199999999997 395.12979357171656,425.11199999999997 395.12979357171656,425.916" fill="#5B9BD5" transform="rotate(-150.00000000000003 391.1457935717166 423.9)"/>
<polygon points="308.29158714343316,270 306.27558714343314,267.984 306.27558714343314,268.788 298.3075871434332,268.788 298.3075871434332,267.984 296.29158714343316,270 298.3075871434332,272.016 298.3075871434332,271.212 306.27558714343314,271.212 306.27558714343314,272.016" fill="#70AD47" transform="rotate(-89.99999999999999 302.29158714343316 270)"/>
<polygon points="397.1457935717166,116.1 395.12979357171656,114.08399999999999 395.12979357171656,114.88799999999999 387.1617935717166,114.88799999999999 387.1617935717166,114.08399999999999 385.1457935717166,116.1 387.1617935717166,118.116 387.1617935717166,117.312 395.12979357171656,117.312 395.12979357171656,118.116" fill="#264478" transform="rotate(-29.999999999999993 391.1457935717166 116.1)"/>
<rect x="393.6" y="27.000000000000007" width="172.79999999999998" height="75.60000000000001" rx="8" ry="8" fill="#ED7D31" stroke="#FFFFFF" stroke-width="2"/>
<rect x="571.3084128565669" y="129.60000000000002" width="172.79999999999998" height="75.60000000000001" rx="8" ry="8" fill="#A5A5A5" stroke="#FFFFFF" stroke-width="2"/>
<rect x="571.3084128565669" y="334.79999999999995" width="172.79999999999998" height="75.60000000000001" rx="8" ry="8" fill="#FFC000" stroke="#FFFFFF" stroke-width="2"/>
<rect x="393.6" y="437.4" width="172.79999999999998" height="75.60000000000001" rx="8" ry="8" fill="#5B9BD5" stroke="#FFFFFF" stroke-width="2"/>
<rect x="215.89158714343318" y="334.79999999999995" width="172.79999999999998" height="75.60000000000001" rx="8" ry="8" fill="#70AD47" stroke="#FFFFFF" stroke-width="2"/>
<rect x="215.89158714343324" y="129.59999999999997" width="172.79999999999998" height="75.60000000000001" rx="8" ry="8" fill="#264478" stroke="#FFFFFF" stroke-width="2"/>
</svg>
