<svg xmlns="http://www.w3.org/2000/svg" width="960" height="540" viewBox="0 0 960 540">
<path d="M 519.2953095645565 85.13010346131074 A 189 189 0 0 1 620.4543720152275 143.5343153981758" fill="none" stroke="#ED7D31" stroke-width="16.2"/>
<path d="M 659.749681579784 211.59578806313493 A 189 189 0 0 1 659.749681579784 328.40421193686507" fill="none" stroke="#A5A5A5" stroke-width="16.2"/>
<path d="M 620.4543720152275 396.4656846018242 A 189 189 0 0 1 519.2953095645565 454.86989653868926" fill="none" stroke="#FFC000" stroke-width="16.2"/>
<path d="M 440.7046904354435 454.86989653868926 A 189 189 0 0 1 339.5456279847725 396.46568460182425" fill="none" stroke="#5B9BD5" stroke-width="16.2"/>
<path d="M 300.250318420216 328.40421193686507 A 189 189 0 0 1 300.250318420216 211.59578806313488" fill="none" stroke="#70AD47" stroke-width="16.2"/>
<path d="M 339.5456279847725 143.5343153981758 A 189 189 0 0 1 440.7046904354434 85.13010346131074" fill="none" stroke="#264478" stroke-width="16.2"/>
<rect x="384" y="45.9" width="192" height="70.2" rx="8" ry="8" fill="#ED7D31" stroke="#FFFFFF" stroke-width="2"/>
<rect x="547.6788013152589" y="140.4" width="192" height="70.2" rx="8" ry="8" fill="#A5A5A5" stroke="#FFFFFF" stroke-width="2"/>
<rect x="547.6788013152589" y="329.4" width="192" height="70.2" rx="8" ry="8" fill="#FFC000" stroke="#FFFFFF" stroke-width="2"/>
<rect x="384" y="423.9" width="192" height="70.2" rx="8" ry="8" fill="#5B9BD5" stroke="#FFFFFF" stroke-width="2"/>
<rect x="220.3211986847411" y="329.4" width="192" height="70.2" rx="8" ry="8" fill="#70AD47" stroke="#FFFFFF" stroke-width="2"/>
<rect x="220.3211986847411" y="140.4" width="192" height="70.2" rx="8" ry="8" fill="#264478" stroke="#FFFFFF" stroke-width="2"/>
</svg>
