<svg xmlns="http://www.w3.org/2000/svg" width="320" height="180" viewBox="0 0 320 180">
  <rect width="320" height="180" fill="#ffffff"/>
  <path d="M160 26 A72 72 0 0 1 247 70" fill="none" stroke="#5E8E6F" stroke-width="5"/>
  <path d="M247 70 A72 72 0 0 1 214 146" fill="none" stroke="#5E8E6F" stroke-width="5"/>
  <path d="M214 146 A72 72 0 0 1 106 146" fill="none" stroke="#5E8E6F" stroke-width="5"/>
  <path d="M106 146 A72 72 0 0 1 73 70" fill="none" stroke="#5E8E6F" stroke-width="5"/>
  <path d="M73 70 A72 72 0 0 1 160 26" fill="none" stroke="#5E8E6F" stroke-width="5"/>
  <rect x="128" y="14" width="64" height="24" rx="8" fill="#ffffff" stroke="#D9B952"/>
  <rect x="246" y="58" width="64" height="24" rx="8" fill="#ffffff" stroke="#6C8F70"/>
  <rect x="214" y="134" width="64" height="24" rx="8" fill="#ffffff" stroke="#B8A877"/>
  <rect x="42" y="134" width="64" height="24" rx="8" fill="#ffffff" stroke="#8CB6A6"/>
  <rect x="10" y="58" width="64" height="24" rx="8" fill="#ffffff" stroke="#7A9CB9"/>
</svg>
