<svg xmlns="http://www.w3.org/2000/svg" width="960" height="540" viewBox="0 0 960 540">
<path d="M 511.34008072615984 72.1265178451701 A 200.34 200.34 0 0 1 611.4348658679583 118.80148269816985 L 618.8745752567106 110.24307605844362 L 626.8805867153675 151.05844609158072 L 589.1157377017012 144.47670261734856 L 596.5554470904535 135.91829597762234 A 177.66 177.66 0 0 0 507.7921470590474 94.52728940986782 Z" fill="#ED7D31"/>
<path d="M 667.0335026444494 198.20456498809455 A 200.34 200.34 0 0 1 676.659189931905 308.226674133737 L 687.7908421922016 310.390448141307 L 656.4467006079711 337.73154246406176 L 643.2642331510154 301.73535211102694 L 654.395885411312 303.89912611859694 A 177.66 177.66 0 0 0 645.8598985714929 206.33235008378196 Z" fill="#A5A5A5"/>
<path d="M 635.6934219182896 396.07804714292445 A 200.34 200.34 0 0 1 545.2243240639468 459.4251914355671 L 548.916266935491 470.1473720828634 L 509.56611389260365 456.67309637248104 L 534.1484954493143 427.2586494936784 L 537.8404383208584 437.9808301409746 A 177.66 177.66 0 0 0 618.0677515124455 381.8050606739141 Z" fill="#FFC000"/>
<path d="M 448.6599192738401 467.87348215482984 A 200.34 200.34 0 0 1 348.56513413204175 421.19851730183007 L 341.1254247432894 429.75692394155635 L 333.1194132846325 388.94155390841934 L 370.8842622982988 395.5232973826514 L 363.4445529095465 404.0817040223776 A 177.66 177.66 0 0 0 452.20785294095253 445.4727105901321 Z" fill="#5B9BD5"/>
<path d="M 292.9664973555506 341.79543501190545 A 200.34 200.34 0 0 1 283.34081006809504 231.77332586626304 L 272.2091578077985 229.609551858693 L 303.55329939202886 202.2684575359382 L 316.73576684898455 238.2646478889731 L 305.60411458868805 236.10087388140306 A 177.66 177.66 0 0 0 314.14010142850714 333.667649916218 Z" fill="#70AD47"/>
<path d="M 324.3065780817104 143.92195285707552 A 200.34 200.34 0 0 1 414.77567593605323 80.57480856443286 L 411.0837330645091 69.8526279171366 L 450.43388610739635 83.32690362751899 L 425.8515045506857 112.74135050632162 L 422.1595616791416 102.01916985902537 A 177.66 177.66 0 0 0 341.9322484875546 158.19493932608586 Z" fill="#264478"/>
<rect x="428.025" y="39.42" width="103.94999999999999" height="83.16" rx="0" ry="0" fill="none" stroke="none" stroke-width="0"/>
<rect x="591.7038013152588" y="133.92000000000002" width="103.94999999999999" height="83.16" rx="0" ry="0" fill="none" stroke="none" stroke-width="0"/>
<rect x="591.7038013152588" y="322.92" width="103.94999999999999" height="83.16" rx="0" ry="0" fill="none" stroke="none" stroke-width="0"/>
<rect x="428.025" y="417.42" width="103.94999999999999" height="83.16" rx="0" ry="0" fill="none" stroke="none" stroke-width="0"/>
<rect x="264.3461986847411" y="322.92" width="103.94999999999999" height="83.16" rx="0" ry="0" fill="none" stroke="none" stroke-width="0"/>
<rect x="264.3461986847411" y="133.92000000000002" width="103.94999999999999" height="83.16" rx="0" ry="0" fill="none" stroke="none" stroke-width="0"/>
</svg>
