<svg xmlns="http://www.w3.org/2000/svg" width="960" height="540" viewBox="0 0 960 540">
<path d="M 553.6793874369654 96.42224079418023 A 188.568 188.568 0 0 1 593.4830552857354 119.40289914140209" fill="none" stroke="#FFFFFF" stroke-width="2"/>
<path d="M 667.1624427227008 247.01934165277814 A 188.568 188.568 0 0 1 667.1624427227008 292.98065834722183" fill="none" stroke="#FFFFFF" stroke-width="2"/>
<path d="M 593.4830552857354 420.5971008585979 A 188.568 188.568 0 0 1 553.6793874369654 443.5777592058198" fill="none" stroke="#FFFFFF" stroke-width="2"/>
<path d="M 406.3206125630346 443.5777592058198 A 188.568 188.568 0 0 1 366.5169447142645 420.5971008585979" fill="none" stroke="#FFFFFF" stroke-width="2"/>
<path d="M 292.8375572772992 292.9806583472219 A 188.568 188.568 0 0 1 292.8375572772992 247.0193416527781" fill="none" stroke="#FFFFFF" stroke-width="2"/>
<path d="M 366.5169447142646 119.40289914140209 A 188.568 188.568 0 0 1 406.3206125630346 96.42224079418023" fill="none" stroke="#FFFFFF" stroke-width="2"/>
<path d="M 480 75.6 A 194.4 194.4 0 0 1 648.3553384956949 172.8 L 527.1394947787945 242.784 A 54.43200000000001 54.43200000000001 0 0 0 480 215.56799999999998 Z" fill="#ED7D31" stroke="#FFFFFF" stroke-width="2"/>
<path d="M 648.3553384956949 172.8 A 194.4 194.4 0 0 1 648.3553384956949 367.2 L 527.1394947787945 297.216 A 54.43200000000001 54.43200000000001 0 0 0 527.1394947787945 242.784 Z" fill="#A5A5A5" stroke="#FFFFFF" stroke-width="2"/>
<path d="M 648.3553384956949 367.2 A 194.4 194.4 0 0 1 480 464.4 L 480 324.432 A 54.43200000000001 54.43200000000001 0 0 0 527.1394947787945 297.216 Z" fill="#FFC000" stroke="#FFFFFF" stroke-width="2"/>
<path d="M 480 464.4 A 194.4 194.4 0 0 1 311.6446615043051 367.2 L 432.8605052212054 297.216 A 54.43200000000001 54.43200000000001 0 0 0 480 324.432 Z" fill="#5B9BD5" stroke="#FFFFFF" stroke-width="2"/>
<path d="M 311.6446615043051 367.2 A 194.4 194.4 0 0 1 311.64466150430513 172.79999999999995 L 432.8605052212054 242.784 A 54.43200000000001 54.43200000000001 0 0 0 432.8605052212054 297.216 Z" fill="#70AD47" stroke="#FFFFFF" stroke-width="2"/>
<path d="M 311.64466150430513 172.79999999999995 A 194.4 194.4 0 0 1 479.99999999999994 75.6 L 480 215.56799999999998 A 54.43200000000001 54.43200000000001 0 0 0 432.8605052212054 242.784 Z" fill="#264478" stroke="#FFFFFF" stroke-width="2"/>
</svg>
