<svg xmlns="http://www.w3.org/2000/svg" width="960" height="540" viewBox="0 0 960 540">
<path d="M 538.2144006576294 128.141325 L 553.8210756576294 112.53465 L 545.9114256576295 104.625 L 581.2969506576294 108.797175 L 585.4644006576294 144.187425 L 577.5547506576294 136.277775 L 561.9480756576294 151.875 Z" fill="#ED7D31" fill-rule="evenodd" transform="rotate(75.00000000000001 561.8394006576294 128.25)"/>
<path d="M 620.0538013152589 269.891325 L 635.6604763152588 254.28465 L 627.7508263152589 246.375 L 663.1363513152588 250.547175 L 667.3038013152589 285.937425 L 659.3941513152588 278.027775 L 643.7874763152588 293.625 Z" fill="#A5A5A5" fill-rule="evenodd" transform="rotate(135 643.6788013152589 270)"/>
<path d="M 538.2144006576294 411.641325 L 553.8210756576294 396.03465 L 545.9114256576295 388.125 L 581.2969506576294 392.297175 L 585.4644006576294 427.687425 L 577.5547506576294 419.777775 L 561.9480756576294 435.375 Z" fill="#FFC000" fill-rule="evenodd" transform="rotate(194.99999999999997 561.8394006576294 411.75)"/>
<path d="M 374.5355993423706 411.641325 L 390.14227434237057 396.03465 L 382.23262434237057 388.125 L 417.61814934237054 392.297175 L 421.7855993423706 427.687425 L 413.8759493423706 419.777775 L 398.2692743423706 435.375 Z" fill="#5B9BD5" fill-rule="evenodd" transform="rotate(-105.00000000000003 398.1605993423706 411.75)"/>
<path d="M 292.6961986847411 269.891325 L 308.3028736847411 254.28465 L 300.3932236847411 246.375 L 335.7787486847411 250.547175 L 339.9461986847411 285.937425 L 332.0365486847411 278.027775 L 316.4298736847411 293.625 Z" fill="#70AD47" fill-rule="evenodd" transform="rotate(-45 316.3211986847411 270)"/>
<path d="M 374.5355993423706 128.141325 L 390.14227434237057 112.53465 L 382.23262434237057 104.625 L 417.61814934237054 108.797175 L 421.7855993423706 144.187425 L 413.8759493423706 136.277775 L 398.2692743423706 151.875 Z" fill="#264478" fill-rule="evenodd" transform="rotate(15.000000000000004 398.1605993423706 128.25)"/>
<ellipse cx="480" cy="81" rx="61.42499999999999" ry="61.42499999999999" fill="#ED7D31" stroke="#FFFFFF" stroke-width="2"/>
<ellipse cx="643.6788013152589" cy="175.5" rx="61.42499999999999" ry="61.42499999999999" fill="#A5A5A5" stroke="#FFFFFF" stroke-width="2"/>
<ellipse cx="643.6788013152589" cy="364.5" rx="61.42499999999999" ry="61.42499999999999" fill="#FFC000" stroke="#FFFFFF" stroke-width="2"/>
<ellipse cx="480" cy="459" rx="61.42499999999999" ry="61.42499999999999" fill="#5B9BD5" stroke="#FFFFFF" stroke-width="2"/>
<ellipse cx="316.3211986847411" cy="364.5" rx="61.42499999999999" ry="61.42499999999999" fill="#70AD47" stroke="#FFFFFF" stroke-width="2"/>
<ellipse cx="316.3211986847411" cy="175.5" rx="61.42499999999999" ry="61.42499999999999" fill="#264478" stroke="#FFFFFF" stroke-width="2"/>
</svg>
