<svg xmlns="http://www.w3.org/2000/svg" width="960" height="540" viewBox="0 0 960 540">
<ellipse cx="42.704" cy="270" rx="13.904000000000002" ry="216" fill="#ED7D31" stroke="#FFFFFF" stroke-width="2"/>
<rect x="71.008" y="28.799999999999997" width="84.19200000000002" height="226.8" rx="4" ry="4" fill="#ED7D31" stroke="#FFFFFF" stroke-width="2"/>
<rect x="71.008" y="284.4" width="84.19200000000002" height="226.8" rx="4" ry="4" fill="#FFFFFF" stroke="#ED7D31" stroke-width="2"/>
<ellipse cx="197.904" cy="270" rx="13.904000000000002" ry="216" fill="#A5A5A5" stroke="#FFFFFF" stroke-width="2"/>
<rect x="226.208" y="28.799999999999997" width="84.19200000000002" height="226.8" rx="4" ry="4" fill="#A5A5A5" stroke="#FFFFFF" stroke-width="2"/>
<rect x="226.208" y="284.4" width="84.19200000000002" height="226.8" rx="4" ry="4" fill="#FFFFFF" stroke="#A5A5A5" stroke-width="2"/>
<ellipse cx="353.10400000000004" cy="270" rx="13.904000000000002" ry="216" fill="#FFC000" stroke="#FFFFFF" stroke-width="2"/>
<rect x="381.408" y="28.799999999999997" width="84.19200000000002" height="226.8" rx="4" ry="4" fill="#FFC000" stroke="#FFFFFF" stroke-width="2"/>
<rect x="381.408" y="284.4" width="84.19200000000002" height="226.8" rx="4" ry="4" fill="#FFFFFF" stroke="#FFC000" stroke-width="2"/>
<ellipse cx="508.30400000000003" cy="270" rx="13.904000000000002" ry="216" fill="#5B9BD5" stroke="#FFFFFF" stroke-width="2"/>
<rect x="536.6080000000001" y="28.799999999999997" width="84.19200000000002" height="226.8" rx="4" ry="4" fill="#5B9BD5" stroke="#FFFFFF" stroke-width="2"/>
<rect x="536.6080000000001" y="284.4" width="84.19200000000002" height="226.8" rx="4" ry="4" fill="#FFFFFF" stroke="#5B9BD5" stroke-width="2"/>
<ellipse cx="663.504" cy="270" rx="13.904000000000002" ry="216" fill="#70AD47" stroke="#FFFFFF" stroke-width="2"/>
<rect x="691.808" y="28.799999999999997" width="84.19200000000002" height="226.8" rx="4" ry="4" fill="#70AD47" stroke="#FFFFFF" stroke-width="2"/>
<rect x="691.808" y="284.4" width="84.19200000000002" height="226.8" rx="4" ry="4" fill="#FFFFFF" stroke="#70AD47" stroke-width="2"/>
<ellipse cx="818.7040000000001" cy="270" rx="13.904000000000002" ry="216" fill="#264478" stroke="#FFFFFF" stroke-width="2"/>
<rect x="847.008" y="28.799999999999997" width="84.19200000000002" height="226.8" rx="4" ry="4" fill="#264478" stroke="#FFFFFF" stroke-width="2"/>
<rect x="847.008" y="284.4" width="84.19200000000002" height="226.8" rx="4" ry="4" fill="#FFFFFF" stroke="#264478" stroke-width="2"/>
</svg>
