<svg xmlns="http://www.w3.org/2000/svg" width="960" height="540" viewBox="0 0 960 540">
<rect x="19.2" y="16.2" width="137.6" height="108" rx="4" ry="4" fill="#ED7D31" stroke="#FFFFFF" stroke-width="2"/>
<rect x="19.2" y="143.4" width="137.6" height="189" rx="2" ry="2" fill="#FFFFFF" stroke="#ED7D31" stroke-width="2"/>
<rect x="19.2" y="342" width="137.6" height="189" rx="2" ry="2" fill="#FFFFFF" stroke="#ED7D31" stroke-width="2"/>
<rect x="175.99999999999997" y="16.2" width="137.6" height="108" rx="4" ry="4" fill="#A5A5A5" stroke="#FFFFFF" stroke-width="2"/>
<rect x="175.99999999999997" y="143.4" width="137.6" height="189" rx="2" ry="2" fill="#FFFFFF" stroke="#A5A5A5" stroke-width="2"/>
<rect x="175.99999999999997" y="342" width="137.6" height="189" rx="2" ry="2" fill="#FFFFFF" stroke="#A5A5A5" stroke-width="2"/>
<rect x="332.79999999999995" y="16.2" width="137.6" height="108" rx="4" ry="4" fill="#FFC000" stroke="#FFFFFF" stroke-width="2"/>
<rect x="332.79999999999995" y="143.4" width="137.6" height="189" rx="2" ry="2" fill="#FFFFFF" stroke="#FFC000" stroke-width="2"/>
<rect x="332.79999999999995" y="342" width="137.6" height="189" rx="2" ry="2" fill="#FFFFFF" stroke="#FFC000" stroke-width="2"/>
<rect x="489.59999999999997" y="16.2" width="137.6" height="108" rx="4" ry="4" fill="#5B9BD5" stroke="#FFFFFF" stroke-width="2"/>
<rect x="489.59999999999997" y="143.4" width="137.6" height="189" rx="2" ry="2" fill="#FFFFFF" stroke="#5B9BD5" stroke-width="2"/>
<rect x="489.59999999999997" y="342" width="137.6" height="189" rx="2" ry="2" fill="#FFFFFF" stroke="#5B9BD5" stroke-width="2"/>
<rect x="646.4" y="16.2" width="137.6" height="108" rx="4" ry="4" fill="#70AD47" stroke="#FFFFFF" stroke-width="2"/>
<rect x="646.4" y="143.4" width="137.6" height="189" rx="2" ry="2" fill="#FFFFFF" stroke="#70AD47" stroke-width="2"/>
<rect x="646.4" y="342" width="137.6" height="189" rx="2" ry="2" fill="#FFFFFF" stroke="#70AD47" stroke-width="2"/>
<rect x="803.1999999999999" y="16.2" width="137.6" height="108" rx="4" ry="4" fill="#264478" stroke="#FFFFFF" stroke-width="2"/>
<rect x="803.1999999999999" y="143.4" width="137.6" height="189" rx="2" ry="2" fill="#FFFFFF" stroke="#264478" stroke-width="2"/>
<rect x="803.1999999999999" y="342" width="137.6" height="189" rx="2" ry="2" fill="#FFFFFF" stroke="#264478" stroke-width="2"/>
</svg>
