<svg xmlns="http://www.w3.org/2000/svg" width="960" height="540" viewBox="0 0 960 540">
<rect x="19.2" y="27" width="137.6" height="297" rx="8" ry="8" fill="#ED7D31" stroke="#FFFFFF" stroke-width="2"/>
<rect x="27.456" y="130.95" width="121.088" height="184.794" rx="2" ry="2" fill="#FFFFFF" stroke="#ED7D31" stroke-width="2"/>
<polygon points="158.14399999999998,367.2 174.65599999999998,367.2 166.39999999999998,383.712" fill="#ED7D31" stroke="none" stroke-width="0"/>
<rect x="175.99999999999997" y="27" width="137.6" height="297" rx="8" ry="8" fill="#A5A5A5" stroke="#FFFFFF" stroke-width="2"/>
<rect x="184.25599999999997" y="130.95" width="121.088" height="184.794" rx="2" ry="2" fill="#FFFFFF" stroke="#A5A5A5" stroke-width="2"/>
<polygon points="314.94399999999996,367.2 331.45599999999996,367.2 323.19999999999993,383.712" fill="#A5A5A5" stroke="none" stroke-width="0"/>
<rect x="332.79999999999995" y="27" width="137.6" height="297" rx="8" ry="8" fill="#FFC000" stroke="#FFFFFF" stroke-width="2"/>
<rect x="341.0559999999999" y="130.95" width="121.088" height="184.794" rx="2" ry="2" fill="#FFFFFF" stroke="#FFC000" stroke-width="2"/>
<polygon points="471.74399999999997,367.2 488.256,367.2 480,383.712" fill="#FFC000" stroke="none" stroke-width="0"/>
<rect x="489.59999999999997" y="27" width="137.6" height="297" rx="8" ry="8" fill="#5B9BD5" stroke="#FFFFFF" stroke-width="2"/>
<rect x="497.856" y="130.95" width="121.088" height="184.794" rx="2" ry="2" fill="#FFFFFF" stroke="#5B9BD5" stroke-width="2"/>
<polygon points="628.544,367.2 645.056,367.2 636.8,383.712" fill="#5B9BD5" stroke="none" stroke-width="0"/>
<rect x="646.4" y="27" width="137.6" height="297" rx="8" ry="8" fill="#70AD47" stroke="#FFFFFF" stroke-width="2"/>
<rect x="654.656" y="130.95" width="121.088" height="184.794" rx="2" ry="2" fill="#FFFFFF" stroke="#70AD47" stroke-width="2"/>
<polygon points="785.344,367.2 801.856,367.2 793.6,383.712" fill="#70AD47" stroke="none" stroke-width="0"/>
<rect x="803.1999999999999" y="27" width="137.6" height="297" rx="8" ry="8" fill="#264478" stroke="#FFFFFF" stroke-width="2"/>
<rect x="811.4559999999999" y="130.95" width="121.088" height="184.794" rx="2" ry="2" fill="#FFFFFF" stroke="#264478" stroke-width="2"/>
</svg>
