<svg xmlns="http://www.w3.org/2000/svg" width="960" height="540" viewBox="0 0 960 540">
<ellipse cx="84.11428571428571" cy="216" rx="45.714285714285715" ry="45.714285714285715" fill="#ED7D31" stroke="#FFFFFF" stroke-width="2"/>
<path d="M 84.11428571428571 177.14285714285714 A 38.857142857142854 38.857142857142854 0 0 1 117.76555854705248 196.57142857142858 Z" fill="#ED7D31" stroke="none" stroke-width="0"/>
<rect x="139.42857142857142" y="151.2" width="114.28571428571429" height="64.8" rx="0" ry="0" fill="transparent" stroke="none" stroke-width="0"/>
<rect x="139.42857142857142" y="216" width="114.28571428571429" height="64.8" rx="0" ry="0" fill="transparent" stroke="none" stroke-width="0"/>
<ellipse cx="240.91428571428568" cy="216" rx="45.714285714285715" ry="45.714285714285715" fill="#A5A5A5" stroke="#FFFFFF" stroke-width="2"/>
<path d="M 240.91428571428568 177.14285714285714 A 38.857142857142854 38.857142857142854 0 0 1 274.56555854705243 235.42857142857142 Z" fill="#A5A5A5" stroke="none" stroke-width="0"/>
<rect x="296.2285714285714" y="151.2" width="114.28571428571429" height="64.8" rx="0" ry="0" fill="transparent" stroke="none" stroke-width="0"/>
<rect x="296.2285714285714" y="216" width="114.28571428571429" height="64.8" rx="0" ry="0" fill="transparent" stroke="none" stroke-width="0"/>
<ellipse cx="397.71428571428567" cy="216" rx="45.714285714285715" ry="45.714285714285715" fill="#FFC000" stroke="#FFFFFF" stroke-width="2"/>
<path d="M 397.71428571428567 177.14285714285714 A 38.857142857142854 38.857142857142854 0 0 1 397.71428571428567 254.85714285714286 Z" fill="#FFC000" stroke="none" stroke-width="0"/>
<rect x="453.0285714285714" y="151.2" width="114.28571428571429" height="64.8" rx="0" ry="0" fill="transparent" stroke="none" stroke-width="0"/>
<rect x="453.0285714285714" y="216" width="114.28571428571429" height="64.8" rx="0" ry="0" fill="transparent" stroke="none" stroke-width="0"/>
<ellipse cx="554.5142857142857" cy="216" rx="45.714285714285715" ry="45.714285714285715" fill="#5B9BD5" stroke="#FFFFFF" stroke-width="2"/>
<path d="M 554.5142857142857 177.14285714285714 A 38.857142857142854 38.857142857142854 0 1 1 520.863012881519 235.42857142857142 Z" fill="#5B9BD5" stroke="none" stroke-width="0"/>
<rect x="609.8285714285714" y="151.2" width="114.28571428571429" height="64.8" rx="0" ry="0" fill="transparent" stroke="none" stroke-width="0"/>
<rect x="609.8285714285714" y="216" width="114.28571428571429" height="64.8" rx="0" ry="0" fill="transparent" stroke="none" stroke-width="0"/>
<ellipse cx="711.3142857142857" cy="216" rx="45.714285714285715" ry="45.714285714285715" fill="#70AD47" stroke="#FFFFFF" stroke-width="2"/>
<path d="M 711.3142857142857 177.14285714285714 A 38.857142857142854 38.857142857142854 0 1 1 677.663012881519 196.57142857142856 Z" fill="#70AD47" stroke="none" stroke-width="0"/>
<rect x="766.6285714285714" y="151.2" width="114.28571428571429" height="64.8" rx="0" ry="0" fill="transparent" stroke="none" stroke-width="0"/>
<rect x="766.6285714285714" y="216" width="114.28571428571429" height="64.8" rx="0" ry="0" fill="transparent" stroke="none" stroke-width="0"/>
<ellipse cx="868.1142857142856" cy="216" rx="45.714285714285715" ry="45.714285714285715" fill="#264478" stroke="#FFFFFF" stroke-width="2"/>
<ellipse cx="868.1142857142856" cy="216" rx="38.857142857142854" ry="38.857142857142854" fill="#264478" stroke="none" stroke-width="0"/>
<rect x="923.4285714285713" y="151.2" width="114.28571428571429" height="64.8" rx="0" ry="0" fill="transparent" stroke="none" stroke-width="0"/>
<rect x="923.4285714285713" y="216" width="114.28571428571429" height="64.8" rx="0" ry="0" fill="transparent" stroke="none" stroke-width="0"/>
</svg>
