<svg xmlns="http://www.w3.org/2000/svg" width="960" height="540" viewBox="0 0 960 540">
<rect x="0" y="0" width="960" height="1" rx="0" ry="0" fill="#ED7D31" stroke="none" stroke-width="0"/>
<rect x="0" y="0" width="192" height="540" rx="0" ry="0" fill="#ED7D31" stroke="none" stroke-width="0"/>
<rect x="206.4" y="4.5" width="753.6" height="81" rx="0" ry="0" fill="transparent" stroke="none" stroke-width="0"/>
<rect x="192" y="90" width="768" height="1" rx="0" ry="0" fill="#ED7D31" stroke="none" stroke-width="0"/>
<rect x="206.4" y="94.5" width="753.6" height="81" rx="0" ry="0" fill="transparent" stroke="none" stroke-width="0"/>
<rect x="192" y="180" width="768" height="1" rx="0" ry="0" fill="#ED7D31" stroke="none" stroke-width="0"/>
<rect x="206.4" y="184.5" width="753.6" height="81" rx="0" ry="0" fill="transparent" stroke="none" stroke-width="0"/>
<rect x="192" y="270" width="768" height="1" rx="0" ry="0" fill="#ED7D31" stroke="none" stroke-width="0"/>
<rect x="206.4" y="274.5" width="753.6" height="81" rx="0" ry="0" fill="transparent" stroke="none" stroke-width="0"/>
<rect x="192" y="360" width="768" height="1" rx="0" ry="0" fill="#ED7D31" stroke="none" stroke-width="0"/>
<rect x="206.4" y="364.5" width="753.6" height="81" rx="0" ry="0" fill="transparent" stroke="none" stroke-width="0"/>
<rect x="192" y="450" width="768" height="1" rx="0" ry="0" fill="#ED7D31" stroke="none" stroke-width="0"/>
<rect x="206.4" y="454.5" width="753.6" height="81" rx="0" ry="0" fill="transparent" stroke="none" stroke-width="0"/>
<rect x="192" y="540" width="768" height="1" rx="0" ry="0" fill="#ED7D31" stroke="none" stroke-width="0"/>
</svg>
