<svg xmlns="http://www.w3.org/2000/svg" width="960" height="540" viewBox="0 0 960 540">
<rect x="28.799999999999997" y="10.8" width="384" height="77.39999999999999" rx="6" ry="6" fill="#ED7D31" stroke="#FFFFFF" stroke-width="2"/>
<rect x="451.2" y="10.8" width="432" height="77.39999999999999" rx="6" ry="6" fill="#FFFFFF" stroke="#ED7D31" stroke-width="2"/>
<rect x="28.799999999999997" y="98.99999999999999" width="384" height="77.39999999999999" rx="6" ry="6" fill="#A5A5A5" stroke="#FFFFFF" stroke-width="2"/>
<rect x="451.2" y="98.99999999999999" width="432" height="77.39999999999999" rx="6" ry="6" fill="#FFFFFF" stroke="#A5A5A5" stroke-width="2"/>
<rect x="28.799999999999997" y="187.2" width="384" height="77.39999999999999" rx="6" ry="6" fill="#FFC000" stroke="#FFFFFF" stroke-width="2"/>
<rect x="451.2" y="187.2" width="432" height="77.39999999999999" rx="6" ry="6" fill="#FFFFFF" stroke="#FFC000" stroke-width="2"/>
<rect x="28.799999999999997" y="275.4" width="384" height="77.39999999999999" rx="6" ry="6" fill="#5B9BD5" stroke="#FFFFFF" stroke-width="2"/>
<rect x="451.2" y="275.4" width="432" height="77.39999999999999" rx="6" ry="6" fill="#FFFFFF" stroke="#5B9BD5" stroke-width="2"/>
<rect x="28.799999999999997" y="363.59999999999997" width="384" height="77.39999999999999" rx="6" ry="6" fill="#70AD47" stroke="#FFFFFF" stroke-width="2"/>
<rect x="451.2" y="363.59999999999997" width="432" height="77.39999999999999" rx="6" ry="6" fill="#FFFFFF" stroke="#70AD47" stroke-width="2"/>
<rect x="28.799999999999997" y="451.79999999999995" width="384" height="77.39999999999999" rx="6" ry="6" fill="#264478" stroke="#FFFFFF" stroke-width="2"/>
<rect x="451.2" y="451.79999999999995" width="432" height="77.39999999999999" rx="6" ry="6" fill="#FFFFFF" stroke="#264478" stroke-width="2"/>
</svg>
