<svg xmlns="http://www.w3.org/2000/svg" width="960" height="540" viewBox="0 0 960 540">
<rect x="57.599999999999994" y="16.2" width="268.8" height="71.10000000000001" rx="8" ry="8" fill="#ED7D31" stroke="#FFFFFF" stroke-width="2"/>
<path d="M 375.465 16.2 L 910.935 16.2 A 10.665000000000001 10.665000000000001 0 0 1 921.5999999999999 26.865000000000002 L 921.5999999999999 87.30000000000001 L 364.79999999999995 87.30000000000001 L 364.79999999999995 26.865000000000002 A 10.665000000000001 10.665000000000001 0 0 1 375.465 16.2 Z" fill="#FFFFFF" stroke="#ED7D31" stroke-width="2"/>
<rect x="57.599999999999994" y="103.50000000000001" width="268.8" height="71.10000000000001" rx="8" ry="8" fill="#A5A5A5" stroke="#FFFFFF" stroke-width="2"/>
<path d="M 375.465 103.50000000000001 L 910.935 103.50000000000001 A 10.665000000000001 10.665000000000001 0 0 1 921.5999999999999 114.16500000000002 L 921.5999999999999 174.60000000000002 L 364.79999999999995 174.60000000000002 L 364.79999999999995 114.16500000000002 A 10.665000000000001 10.665000000000001 0 0 1 375.465 103.50000000000001 Z" fill="#FFFFFF" stroke="#A5A5A5" stroke-width="2"/>
<rect x="57.599999999999994" y="190.8" width="268.8" height="71.10000000000001" rx="8" ry="8" fill="#FFC000" stroke="#FFFFFF" stroke-width="2"/>
<path d="M 375.465 190.8 L 910.935 190.8 A 10.665000000000001 10.665000000000001 0 0 1 921.5999999999999 201.465 L 921.5999999999999 261.90000000000003 L 364.79999999999995 261.90000000000003 L 364.79999999999995 201.465 A 10.665000000000001 10.665000000000001 0 0 1 375.465 190.8 Z" fill="#FFFFFF" stroke="#FFC000" stroke-width="2"/>
<rect x="57.599999999999994" y="278.1" width="268.8" height="71.10000000000001" rx="8" ry="8" fill="#5B9BD5" stroke="#FFFFFF" stroke-width="2"/>
<path d="M 375.465 278.1 L 910.935 278.1 A 10.665000000000001 10.665000000000001 0 0 1 921.5999999999999 288.76500000000004 L 921.5999999999999 349.20000000000005 L 364.79999999999995 349.20000000000005 L 364.79999999999995 288.76500000000004 A 10.665000000000001 10.665000000000001 0 0 1 375.465 278.1 Z" fill="#FFFFFF" stroke="#5B9BD5" stroke-width="2"/>
<rect x="57.599999999999994" y="365.40000000000003" width="268.8" height="71.10000000000001" rx="8" ry="8" fill="#70AD47" stroke="#FFFFFF" stroke-width="2"/>
<path d="M 375.465 365.40000000000003 L 910.935 365.40000000000003 A 10.665000000000001 10.665000000000001 0 0 1 921.5999999999999 376.06500000000005 L 921.5999999999999 436.50000000000006 L 364.79999999999995 436.50000000000006 L 364.79999999999995 376.06500000000005 A 10.665000000000001 10.665000000000001 0 0 1 375.465 365.40000000000003 Z" fill="#FFFFFF" stroke="#70AD47" stroke-width="2"/>
<rect x="57.599999999999994" y="452.70000000000005" width="268.8" height="71.10000000000001" rx="8" ry="8" fill="#264478" stroke="#FFFFFF" stroke-width="2"/>
<path d="M 375.465 452.70000000000005 L 910.935 452.70000000000005 A 10.665000000000001 10.665000000000001 0 0 1 921.5999999999999 463.36500000000007 L 921.5999999999999 523.8000000000001 L 364.79999999999995 523.8000000000001 L 364.79999999999995 463.36500000000007 A 10.665000000000001 10.665000000000001 0 0 1 375.465 452.70000000000005 Z" fill="#FFFFFF" stroke="#264478" stroke-width="2"/>
</svg>
