<svg xmlns="http://www.w3.org/2000/svg" width="960" height="540" viewBox="0 0 960 540">
<ellipse cx="84.11428571428571" cy="216" rx="45.714285714285715" ry="45.714285714285715" fill="#E0E0E0" stroke="#FFFFFF" stroke-width="2"/>
<path d="M 84.11428571428571 174.85714285714286 A 41.142857142857146 41.142857142857146 0 0 1 119.74504518427406 195.42857142857144 L 84.11428571428571 216 A 0 0 0 0 0 84.11428571428571 216 Z" fill="#ED7D31" stroke="none" stroke-width="0"/>
<rect x="139.42857142857142" y="151.2" width="114.28571428571429" height="64.8" rx="0" ry="0" fill="transparent" stroke="none" stroke-width="0"/>
<rect x="139.42857142857142" y="216" width="114.28571428571429" height="64.8" rx="0" ry="0" fill="transparent" stroke="none" stroke-width="0"/>
<ellipse cx="240.91428571428568" cy="216" rx="45.714285714285715" ry="45.714285714285715" fill="#E0E0E0" stroke="#FFFFFF" stroke-width="2"/>
<path d="M 240.91428571428568 174.85714285714286 A 41.142857142857146 41.142857142857146 0 0 1 276.54504518427404 236.57142857142856 L 240.91428571428568 216 A 0 0 0 0 0 240.91428571428568 216 Z" fill="#A5A5A5" stroke="none" stroke-width="0"/>
<rect x="296.2285714285714" y="151.2" width="114.28571428571429" height="64.8" rx="0" ry="0" fill="transparent" stroke="none" stroke-width="0"/>
<rect x="296.2285714285714" y="216" width="114.28571428571429" height="64.8" rx="0" ry="0" fill="transparent" stroke="none" stroke-width="0"/>
<ellipse cx="397.71428571428567" cy="216" rx="45.714285714285715" ry="45.714285714285715" fill="#E0E0E0" stroke="#FFFFFF" stroke-width="2"/>
<path d="M 397.71428571428567 174.85714285714286 A 41.142857142857146 41.142857142857146 0 0 1 397.71428571428567 257.14285714285717 L 397.71428571428567 216 A 0 0 0 0 0 397.71428571428567 216 Z" fill="#FFC000" stroke="none" stroke-width="0"/>
<rect x="453.0285714285714" y="151.2" width="114.28571428571429" height="64.8" rx="0" ry="0" fill="transparent" stroke="none" stroke-width="0"/>
<rect x="453.0285714285714" y="216" width="114.28571428571429" height="64.8" rx="0" ry="0" fill="transparent" stroke="none" stroke-width="0"/>
<ellipse cx="554.5142857142857" cy="216" rx="45.714285714285715" ry="45.714285714285715" fill="#E0E0E0" stroke="#FFFFFF" stroke-width="2"/>
<path d="M 554.5142857142857 174.85714285714286 A 41.142857142857146 41.142857142857146 0 1 1 518.8835262442974 236.57142857142856 L 554.5142857142857 216 A 0 0 0 1 0 554.5142857142857 216 Z" fill="#5B9BD5" stroke="none" stroke-width="0"/>
<rect x="609.8285714285714" y="151.2" width="114.28571428571429" height="64.8" rx="0" ry="0" fill="transparent" stroke="none" stroke-width="0"/>
<rect x="609.8285714285714" y="216" width="114.28571428571429" height="64.8" rx="0" ry="0" fill="transparent" stroke="none" stroke-width="0"/>
<ellipse cx="711.3142857142857" cy="216" rx="45.714285714285715" ry="45.714285714285715" fill="#E0E0E0" stroke="#FFFFFF" stroke-width="2"/>
<path d="M 711.3142857142857 174.85714285714286 A 41.142857142857146 41.142857142857146 0 1 1 675.6835262442974 195.42857142857142 L 711.3142857142857 216 A 0 0 0 1 0 711.3142857142857 216 Z" fill="#70AD47" stroke="none" stroke-width="0"/>
<rect x="766.6285714285714" y="151.2" width="114.28571428571429" height="64.8" rx="0" ry="0" fill="transparent" stroke="none" stroke-width="0"/>
<rect x="766.6285714285714" y="216" width="114.28571428571429" height="64.8" rx="0" ry="0" fill="transparent" stroke="none" stroke-width="0"/>
<ellipse cx="868.1142857142856" cy="216" rx="45.714285714285715" ry="45.714285714285715" fill="#E0E0E0" stroke="#FFFFFF" stroke-width="2"/>
<path d="M 868.1142857142856 174.85714285714286 A 41.142857142857146 41.142857142857146 0 1 1 868.1142857142856 174.85714285714286 L 868.1142857142856 216 A 0 0 0 1 0 868.1142857142856 216 Z" fill="#264478" stroke="none" stroke-width="0"/>
<rect x="923.4285714285713" y="151.2" width="114.28571428571429" height="64.8" rx="0" ry="0" fill="transparent" stroke="none" stroke-width="0"/>
<rect x="923.4285714285713" y="216" width="114.28571428571429" height="64.8" rx="0" ry="0" fill="transparent" stroke="none" stroke-width="0"/>
</svg>
