<svg xmlns="http://www.w3.org/2000/svg" width="960" height="540" viewBox="0 0 960 540">
<rect x="48" y="19.755" width="63.99000000000001" height="63.99000000000001" rx="8" ry="8" fill="#ED7D31" stroke="#FFFFFF" stroke-width="2"/>
<rect x="159.99" y="16.2" width="624" height="71.10000000000001" rx="0" ry="0" fill="transparent" stroke="none" stroke-width="0"/>
<rect x="48" y="107.055" width="63.99000000000001" height="63.99000000000001" rx="8" ry="8" fill="#A5A5A5" stroke="#FFFFFF" stroke-width="2"/>
<rect x="159.99" y="103.50000000000001" width="624" height="71.10000000000001" rx="0" ry="0" fill="transparent" stroke="none" stroke-width="0"/>
<rect x="48" y="194.35500000000002" width="63.99000000000001" height="63.99000000000001" rx="8" ry="8" fill="#FFC000" stroke="#FFFFFF" stroke-width="2"/>
<rect x="159.99" y="190.8" width="624" height="71.10000000000001" rx="0" ry="0" fill="transparent" stroke="none" stroke-width="0"/>
<rect x="48" y="281.65500000000003" width="63.99000000000001" height="63.99000000000001" rx="8" ry="8" fill="#5B9BD5" stroke="#FFFFFF" stroke-width="2"/>
<rect x="159.99" y="278.1" width="624" height="71.10000000000001" rx="0" ry="0" fill="transparent" stroke="none" stroke-width="0"/>
<rect x="48" y="368.95500000000004" width="63.99000000000001" height="63.99000000000001" rx="8" ry="8" fill="#70AD47" stroke="#FFFFFF" stroke-width="2"/>
<rect x="159.99" y="365.40000000000003" width="624" height="71.10000000000001" rx="0" ry="0" fill="transparent" stroke="none" stroke-width="0"/>
<rect x="48" y="456.25500000000005" width="63.99000000000001" height="63.99000000000001" rx="8" ry="8" fill="#264478" stroke="#FFFFFF" stroke-width="2"/>
<rect x="159.99" y="452.70000000000005" width="624" height="71.10000000000001" rx="0" ry="0" fill="transparent" stroke="none" stroke-width="0"/>
</svg>
