<svg xmlns="http://www.w3.org/2000/svg" width="960" height="540" viewBox="0 0 960 540">
<rect x="19.2" y="27" width="921.6" height="243" rx="8" ry="8" fill="#ED7D31" stroke="none" stroke-width="0" opacity="0.15"/>
<rect x="19.2" y="51.3" width="137.6" height="194.4" rx="6" ry="6" fill="#ED7D31" stroke="#FFFFFF" stroke-width="2"/>
<path d="M 39.839999999999996 289.2 L 136.16 289.2 A 20.639999999999997 20.639999999999997 0 0 1 156.79999999999998 309.84 L 156.79999999999998 478.2 L 19.2 478.2 L 19.2 309.84 A 20.639999999999997 20.639999999999997 0 0 1 39.839999999999996 289.2 Z" fill="#FFFFFF" stroke="#ED7D31" stroke-width="2"/>
<rect x="175.99999999999997" y="51.3" width="137.6" height="194.4" rx="6" ry="6" fill="#A5A5A5" stroke="#FFFFFF" stroke-width="2"/>
<path d="M 196.63999999999996 289.2 L 292.96 289.2 A 20.639999999999997 20.639999999999997 0 0 1 313.59999999999997 309.84 L 313.59999999999997 478.2 L 175.99999999999997 478.2 L 175.99999999999997 309.84 A 20.639999999999997 20.639999999999997 0 0 1 196.63999999999996 289.2 Z" fill="#FFFFFF" stroke="#A5A5A5" stroke-width="2"/>
<rect x="332.79999999999995" y="51.3" width="137.6" height="194.4" rx="6" ry="6" fill="#FFC000" stroke="#FFFFFF" stroke-width="2"/>
<path d="M 353.43999999999994 289.2 L 449.76 289.2 A 20.639999999999997 20.639999999999997 0 0 1 470.4 309.84 L 470.4 478.2 L 332.79999999999995 478.2 L 332.79999999999995 309.84 A 20.639999999999997 20.639999999999997 0 0 1 353.43999999999994 289.2 Z" fill="#FFFFFF" stroke="#FFC000" stroke-width="2"/>
<rect x="489.59999999999997" y="51.3" width="137.6" height="194.4" rx="6" ry="6" fill="#5B9BD5" stroke="#FFFFFF" stroke-width="2"/>
<path d="M 510.23999999999995 289.2 L 606.56 289.2 A 20.639999999999997 20.639999999999997 0 0 1 627.1999999999999 309.84 L 627.1999999999999 478.2 L 489.59999999999997 478.2 L 489.59999999999997 309.84 A 20.639999999999997 20.639999999999997 0 0 1 510.23999999999995 289.2 Z" fill="#FFFFFF" stroke="#5B9BD5" stroke-width="2"/>
<rect x="646.4" y="51.3" width="137.6" height="194.4" rx="6" ry="6" fill="#70AD47" stroke="#FFFFFF" stroke-width="2"/>
<path d="M 667.04 289.2 L 763.36 289.2 A 20.639999999999997 20.639999999999997 0 0 1 784 309.84 L 784 478.2 L 646.4 478.2 L 646.4 309.84 A 20.639999999999997 20.639999999999997 0 0 1 667.04 289.2 Z" fill="#FFFFFF" stroke="#70AD47" stroke-width="2"/>
<rect x="803.1999999999999" y="51.3" width="137.6" height="194.4" rx="6" ry="6" fill="#264478" stroke="#FFFFFF" stroke-width="2"/>
<path d="M 823.8399999999999 289.2 L 920.16 289.2 A 20.639999999999997 20.639999999999997 0 0 1 940.8 309.84 L 940.8 478.2 L 803.1999999999999 478.2 L 803.1999999999999 309.84 A 20.639999999999997 20.639999999999997 0 0 1 823.8399999999999 289.2 Z" fill="#FFFFFF" stroke="#264478" stroke-width="2"/>
</svg>
