<svg xmlns="http://www.w3.org/2000/svg" width="960" height="540" viewBox="0 0 960 540">
<polygon points="156.58495999999997,259.632 172.28902399999996,259.632 172.28902399999996,266.47488 182.75839999999997,270 172.28902399999996,273.52512 172.28902399999996,280.368 156.58495999999997,280.368 156.58495999999997,274.1472 150.04159999999996,270 156.58495999999997,265.8528" fill="#ED7D31"/>
<polygon points="313.38496,259.632 329.089024,259.632 329.089024,266.47488 339.55839999999995,270 329.089024,273.52512 329.089024,280.368 313.38496,280.368 313.38496,274.1472 306.84159999999997,270 313.38496,265.8528" fill="#A5A5A5"/>
<polygon points="470.18496000000005,259.632 485.88902400000006,259.632 485.88902400000006,266.47488 496.3584,270 485.88902400000006,273.52512 485.88902400000006,280.368 470.18496000000005,280.368 470.18496000000005,274.1472 463.64160000000004,270 470.18496000000005,265.8528" fill="#FFC000"/>
<polygon points="626.98496,259.632 642.689024,259.632 642.689024,266.47488 653.1584,270 642.689024,273.52512 642.689024,280.368 626.98496,280.368 626.98496,274.1472 620.4416,270 626.98496,265.8528" fill="#5B9BD5"/>
<polygon points="783.78496,259.632 799.489024,259.632 799.489024,266.47488 809.9584,270 799.489024,273.52512 799.489024,280.368 783.78496,280.368 783.78496,274.1472 777.2416,270 783.78496,265.8528" fill="#70AD47"/>
<rect x="19.2" y="81" width="137.6" height="378" rx="6" ry="6" fill="#ED7D31" stroke="#FFFFFF" stroke-width="2"/>
<rect x="175.99999999999997" y="97.2" width="137.6" height="345.6" rx="6" ry="6" fill="#A5A5A5" stroke="#FFFFFF" stroke-width="2"/>
<rect x="332.79999999999995" y="113.4" width="137.6" height="313.2" rx="6" ry="6" fill="#FFC000" stroke="#FFFFFF" stroke-width="2"/>
<rect x="489.59999999999997" y="129.6" width="137.6" height="280.8" rx="6" ry="6" fill="#5B9BD5" stroke="#FFFFFF" stroke-width="2"/>
<rect x="646.4" y="145.8" width="137.6" height="248.4" rx="6" ry="6" fill="#70AD47" stroke="#FFFFFF" stroke-width="2"/>
<rect x="803.1999999999999" y="162" width="137.6" height="216" rx="6" ry="6" fill="#264478" stroke="#FFFFFF" stroke-width="2"/>
</svg>
