<svg xmlns="http://www.w3.org/2000/svg" width="960" height="540" viewBox="0 0 960 540">
<polygon points="44,450 484,450 528,540 0,540" fill="#264478" stroke="#FFFFFF" stroke-width="2"/>
<polygon points="88,360 440,360 484,450 44,450" fill="#70AD47" stroke="#FFFFFF" stroke-width="2"/>
<polygon points="132,270 396,270 440,360 88,360" fill="#5B9BD5" stroke="#FFFFFF" stroke-width="2"/>
<polygon points="176,180 352,180 396,270 132,270" fill="#FFC000" stroke="#FFFFFF" stroke-width="2"/>
<polygon points="220,90 308,90 352,180 176,180" fill="#A5A5A5" stroke="#FFFFFF" stroke-width="2"/>
<polygon points="264,0 264,0 308,90 220,90" fill="#ED7D31" stroke="#FFFFFF" stroke-width="2"/>
<polygon points="308,90 950,90 950,180 352,180" fill="#FFFFFF" stroke="#A5A5A5" stroke-width="1.5"/>
<polygon points="352,180 950,180 950,270 396,270" fill="#FFFFFF" stroke="#FFC000" stroke-width="1.5"/>
</svg>
