<svg xmlns="http://www.w3.org/2000/svg" width="960" height="540" viewBox="0 0 960 540">
<polygon points="0,0 528,0 484,90 44,90" fill="#ED7D31" stroke="#FFFFFF" stroke-width="2"/>
<polygon points="44,90 484,90 440,180 88,180" fill="#A5A5A5" stroke="#FFFFFF" stroke-width="2"/>
<polygon points="484,90 950,90 950,180 440,180" fill="#FFFFFF" stroke="#A5A5A5" stroke-width="1.5"/>
<polygon points="88,180 440,180 396,270 132,270" fill="#FFC000" stroke="#FFFFFF" stroke-width="2"/>
<polygon points="440,180 950,180 950,270 396,270" fill="#FFFFFF" stroke="#FFC000" stroke-width="1.5"/>
<polygon points="132,270 396,270 352,360 176,360" fill="#5B9BD5" stroke="#FFFFFF" stroke-width="2"/>
<polygon points="176,360 352,360 308,450 220,450" fill="#70AD47" stroke="#FFFFFF" stroke-width="2"/>
<polygon points="220,450 308,450 264,540 264,540" fill="#264478" stroke="#FFFFFF" stroke-width="2"/>
</svg>
