<svg xmlns="http://www.w3.org/2000/svg" width="960" height="540" viewBox="0 0 960 540">
<path d="M 489.9305253286682 156.49357609942652 A 113.94 113.94 0 0 1 584.8823230023711 225.48009521993214 L 569.9701443764416 231.8099395014584 A 97.74000000000001 97.74000000000001 0 0 0 488.51860229615613 172.63193020851278 Z" fill="#ED7D31"/>
<path d="M 591.0197251816297 244.36907686806003 A 113.94 113.94 0 0 1 554.7513657631785 355.9916095705826 L 544.1232094935322 343.7653143709737 A 97.74000000000001 97.74000000000001 0 0 0 575.234930132109 248.01328394843063 Z" fill="#A5A5A5"/>
<path d="M 538.6834382552516 367.6656422419987 A 113.94 113.94 0 0 1 421.3165617447484 367.6656422419987 L 429.6601785582913 353.7795319706245 A 97.74000000000001 97.74000000000001 0 0 0 530.3398214417088 353.7795319706245 Z" fill="#FFC000"/>
<path d="M 405.24863423682154 355.9916095705826 A 113.94 113.94 0 0 1 368.9802748183703 244.36907686806003 L 384.7650698678911 248.01328394843063 A 97.74000000000001 97.74000000000001 0 0 0 415.8767905064678 343.7653143709737 Z" fill="#5B9BD5"/>
<path d="M 375.11767699762896 225.48009521993217 A 113.94 113.94 0 0 1 470.0694746713318 156.49357609942652 L 471.48139770384387 172.63193020851278 A 97.74000000000001 97.74000000000001 0 0 0 390.0298556235585 231.80993950145842 Z" fill="#70AD47"/>
<ellipse cx="480" cy="270" rx="56.699999999999996" ry="56.699999999999996" fill="#4472C4" stroke="#FFFFFF" stroke-width="2"/>
<ellipse cx="480" cy="81" rx="34.019999999999996" ry="34.019999999999996" fill="#ED7D31" stroke="#FFFFFF" stroke-width="2"/>
<ellipse cx="659.749681579784" cy="211.59578806313493" rx="34.019999999999996" ry="34.019999999999996" fill="#A5A5A5" stroke="#FFFFFF" stroke-width="2"/>
<ellipse cx="591.0914126832774" cy="422.90421193686507" rx="34.019999999999996" ry="34.019999999999996" fill="#FFC000" stroke="#FFFFFF" stroke-width="2"/>
<ellipse cx="368.9085873167226" cy="422.90421193686507" rx="34.019999999999996" ry="34.019999999999996" fill="#5B9BD5" stroke="#FFFFFF" stroke-width="2"/>
<ellipse cx="300.250318420216" cy="211.59578806313488" rx="34.019999999999996" ry="34.019999999999996" fill="#70AD47" stroke="#FFFFFF" stroke-width="2"/>
</svg>
