<svg xmlns="http://www.w3.org/2000/svg" width="960" height="540" viewBox="0 0 960 540">
<polygon points="467.92289999999997,162.74249999999998 487.24625999999995,162.74249999999998 487.24625999999995,171.16244999999998 500.1285,175.49999999999997 487.24625999999995,179.83754999999996 487.24625999999995,188.25749999999996 467.92289999999997,188.25749999999996 467.92289999999997,180.60299999999998 459.87149999999997,175.49999999999997 467.92289999999997,170.39699999999996" fill="#ED7D31" transform="rotate(-90 480 175.5)"/>
<polygon points="557.797740789892,228.04039403156744 577.1211007898921,228.04039403156744 577.1211007898921,236.46034403156744 590.003340789892,240.79789403156744 577.1211007898921,245.13544403156743 577.1211007898921,253.55539403156743 557.797740789892,253.55539403156743 557.797740789892,245.90089403156745 549.7463407898921,240.79789403156744 557.797740789892,235.69489403156743" fill="#A5A5A5" transform="rotate(-18.000000000000004 569.874840789892 240.79789403156747)"/>
<polygon points="523.4686063416387,333.69460596843254 542.7919663416388,333.69460596843254 542.7919663416388,342.1145559684325 555.6742063416388,346.45210596843253 542.7919663416388,350.78965596843256 542.7919663416388,359.2096059684325 523.4686063416387,359.2096059684325 523.4686063416387,351.55510596843254 515.4172063416388,346.45210596843253 523.4686063416387,341.3491059684325" fill="#FFC000" transform="rotate(54 535.5457063416387 346.45210596843253)"/>
<polygon points="412.37719365836125,333.69460596843254 431.70055365836123,333.69460596843254 431.70055365836123,342.1145559684325 444.58279365836125,346.45210596843253 431.70055365836123,350.78965596843256 431.70055365836123,359.2096059684325 412.37719365836125,359.2096059684325 412.37719365836125,351.55510596843254 404.32579365836125,346.45210596843253 412.37719365836125,341.3491059684325" fill="#5B9BD5" transform="rotate(126 424.4542936583613 346.45210596843253)"/>
<polygon points="378.04805921010797,228.04039403156742 397.37141921010794,228.04039403156742 397.37141921010794,236.46034403156742 410.25365921010797,240.7978940315674 397.37141921010794,245.1354440315674 397.37141921010794,253.5553940315674 378.04805921010797,253.5553940315674 378.04805921010797,245.90089403156742 369.99665921010796,240.7978940315674 378.04805921010797,235.6948940315674" fill="#70AD47" transform="rotate(-162 390.125159210108 240.79789403156744)"/>
<ellipse cx="480" cy="270" rx="56.699999999999996" ry="56.699999999999996" fill="#4472C4" stroke="#FFFFFF" stroke-width="2"/>
<ellipse cx="480" cy="81" rx="37.800000000000004" ry="37.800000000000004" fill="#ED7D31" stroke="#FFFFFF" stroke-width="2"/>
<ellipse cx="659.749681579784" cy="211.59578806313493" rx="37.800000000000004" ry="37.800000000000004" fill="#A5A5A5" stroke="#FFFFFF" stroke-width="2"/>
<ellipse cx="591.0914126832774" cy="422.90421193686507" rx="37.800000000000004" ry="37.800000000000004" fill="#FFC000" stroke="#FFFFFF" stroke-width="2"/>
<ellipse cx="368.9085873167226" cy="422.90421193686507" rx="37.800000000000004" ry="37.800000000000004" fill="#5B9BD5" stroke="#FFFFFF" stroke-width="2"/>
<ellipse cx="300.250318420216" cy="211.59578806313488" rx="37.800000000000004" ry="37.800000000000004" fill="#70AD47" stroke="#FFFFFF" stroke-width="2"/>
</svg>
