<svg xmlns="http://www.w3.org/2000/svg" width="960" height="540" viewBox="0 0 960 540">
<rect x="33.6" y="29.7" width="139.2" height="59.4" rx="0" ry="0" fill="transparent" stroke="none" stroke-width="0"/>
<rect x="33.6" y="91.25999999999999" width="139.2" height="6.48" rx="0" ry="0" fill="#ED7D31" stroke="none" stroke-width="0"/>
<rect x="33.6" y="131.325" width="13.92" height="13.92" rx="0" ry="0" fill="#FFFFFF" stroke="#ED7D31" stroke-width="1.5"/>
<rect x="184.32" y="29.7" width="139.2" height="59.4" rx="0" ry="0" fill="transparent" stroke="none" stroke-width="0"/>
<rect x="184.32" y="91.25999999999999" width="139.2" height="6.48" rx="0" ry="0" fill="#A5A5A5" stroke="none" stroke-width="0"/>
<rect x="184.32" y="131.325" width="13.92" height="13.92" rx="0" ry="0" fill="#FFFFFF" stroke="#A5A5A5" stroke-width="1.5"/>
<rect x="184.32" y="199.45499999999998" width="13.92" height="13.92" rx="0" ry="0" fill="#FFFFFF" stroke="#FFC000" stroke-width="1.5"/>
<rect x="206.59199999999998" y="172.35" width="116.92799999999998" height="68.13" rx="0" ry="0" fill="transparent" stroke="none" stroke-width="0"/>
<rect x="335.04" y="29.7" width="139.2" height="59.4" rx="0" ry="0" fill="transparent" stroke="none" stroke-width="0"/>
<rect x="335.04" y="91.25999999999999" width="139.2" height="6.48" rx="0" ry="0" fill="#FFC000" stroke="none" stroke-width="0"/>
<rect x="335.04" y="131.325" width="13.92" height="13.92" rx="0" ry="0" fill="#FFFFFF" stroke="#FFC000" stroke-width="1.5"/>
<rect x="335.04" y="199.45499999999998" width="13.92" height="13.92" rx="0" ry="0" fill="#FFFFFF" stroke="#5B9BD5" stroke-width="1.5"/>
<rect x="357.312" y="172.35" width="116.92799999999998" height="68.13" rx="0" ry="0" fill="transparent" stroke="none" stroke-width="0"/>
<rect x="335.04" y="267.585" width="13.92" height="13.92" rx="0" ry="0" fill="#FFFFFF" stroke="#70AD47" stroke-width="1.5"/>
<rect x="357.312" y="240.48" width="116.92799999999998" height="68.13" rx="0" ry="0" fill="transparent" stroke="none" stroke-width="0"/>
<rect x="485.76" y="29.7" width="139.2" height="59.4" rx="0" ry="0" fill="transparent" stroke="none" stroke-width="0"/>
<rect x="485.76" y="91.25999999999999" width="139.2" height="6.48" rx="0" ry="0" fill="#5B9BD5" stroke="none" stroke-width="0"/>
<rect x="485.76" y="131.325" width="13.92" height="13.92" rx="0" ry="0" fill="#FFFFFF" stroke="#5B9BD5" stroke-width="1.5"/>
<rect x="636.48" y="29.7" width="139.2" height="59.4" rx="0" ry="0" fill="transparent" stroke="none" stroke-width="0"/>
<rect x="636.48" y="91.25999999999999" width="139.2" height="6.48" rx="0" ry="0" fill="#70AD47" stroke="none" stroke-width="0"/>
<rect x="636.48" y="131.325" width="13.92" height="13.92" rx="0" ry="0" fill="#FFFFFF" stroke="#70AD47" stroke-width="1.5"/>
<rect x="787.2" y="29.7" width="139.2" height="59.4" rx="0" ry="0" fill="transparent" stroke="none" stroke-width="0"/>
<rect x="787.2" y="91.25999999999999" width="139.2" height="6.48" rx="0" ry="0" fill="#264478" stroke="none" stroke-width="0"/>
<rect x="787.2" y="131.325" width="13.92" height="13.92" rx="0" ry="0" fill="#FFFFFF" stroke="#264478" stroke-width="1.5"/>
</svg>
