<svg xmlns="http://www.w3.org/2000/svg" width="960" height="540" viewBox="0 0 960 540">
<polygon points="760.7980799999998,83.73599999999999 778.4651519999999,83.73599999999999 778.4651519999999,91.43423999999999 790.2431999999999,95.39999999999999 778.4651519999999,99.36576 778.4651519999999,107.064 760.7980799999998,107.064 760.7980799999998,100.06559999999999 753.4367999999998,95.39999999999999 760.7980799999998,90.7344" fill="#ED7D31" transform="rotate(90 771.8399999999999 95.4)"/>
<polygon points="760.7980799999998,171.036 778.4651519999999,171.036 778.4651519999999,178.73424 790.2431999999999,182.7 778.4651519999999,186.66575999999998 778.4651519999999,194.364 760.7980799999998,194.364 760.7980799999998,187.3656 753.4367999999998,182.7 760.7980799999998,178.03439999999998" fill="#A5A5A5" transform="rotate(90 771.8399999999999 182.70000000000002)"/>
<polygon points="760.7980799999998,258.33600000000007 778.4651519999999,258.33600000000007 778.4651519999999,266.03424000000007 790.2431999999999,270.00000000000006 778.4651519999999,273.96576000000005 778.4651519999999,281.6640000000001 760.7980799999998,281.6640000000001 760.7980799999998,274.66560000000004 753.4367999999998,270.00000000000006 760.7980799999998,265.3344000000001" fill="#FFC000" transform="rotate(90 771.8399999999999 270.00000000000006)"/>
<polygon points="760.7980799999998,345.6360000000001 778.4651519999999,345.6360000000001 778.4651519999999,353.3342400000001 790.2431999999999,357.30000000000007 778.4651519999999,361.26576000000006 778.4651519999999,368.96400000000006 760.7980799999998,368.96400000000006 760.7980799999998,361.96560000000005 753.4367999999998,357.30000000000007 760.7980799999998,352.6344000000001" fill="#5B9BD5" transform="rotate(90 771.8399999999999 357.30000000000007)"/>
<polygon points="760.7980799999998,432.9360000000001 778.4651519999999,432.9360000000001 778.4651519999999,440.6342400000001 790.2431999999999,444.6000000000001 778.4651519999999,448.56576000000007 778.4651519999999,456.2640000000001 760.7980799999998,456.2640000000001 760.7980799999998,449.26560000000006 753.4367999999998,444.6000000000001 760.7980799999998,439.9344000000001" fill="#70AD47" transform="rotate(90 771.8399999999999 444.6000000000001)"/>
<path d="M 125.865 16.2 L 834.135 16.2 A 10.665000000000001 10.665000000000001 0 0 1 844.8 26.865000000000002 L 844.8 87.30000000000001 L 115.19999999999999 87.30000000000001 L 115.19999999999999 26.865000000000002 A 10.665000000000001 10.665000000000001 0 0 1 125.865 16.2 Z" fill="#ED7D31" stroke="#FFFFFF" stroke-width="2"/>
<path d="M 125.865 103.50000000000001 L 834.135 103.50000000000001 A 10.665000000000001 10.665000000000001 0 0 1 844.8 114.16500000000002 L 844.8 174.60000000000002 L 115.19999999999999 174.60000000000002 L 115.19999999999999 114.16500000000002 A 10.665000000000001 10.665000000000001 0 0 1 125.865 103.50000000000001 Z" fill="#A5A5A5" stroke="#FFFFFF" stroke-width="2"/>
<path d="M 125.865 190.8 L 834.135 190.8 A 10.665000000000001 10.665000000000001 0 0 1 844.8 201.465 L 844.8 261.90000000000003 L 115.19999999999999 261.90000000000003 L 115.19999999999999 201.465 A 10.665000000000001 10.665000000000001 0 0 1 125.865 190.8 Z" fill="#FFC000" stroke="#FFFFFF" stroke-width="2"/>
<path d="M 125.865 278.1 L 834.135 278.1 A 10.665000000000001 10.665000000000001 0 0 1 844.8 288.76500000000004 L 844.8 349.20000000000005 L 115.19999999999999 349.20000000000005 L 115.19999999999999 288.76500000000004 A 10.665000000000001 10.665000000000001 0 0 1 125.865 278.1 Z" fill="#5B9BD5" stroke="#FFFFFF" stroke-width="2"/>
<path d="M 125.865 365.40000000000003 L 834.135 365.40000000000003 A 10.665000000000001 10.665000000000001 0 0 1 844.8 376.06500000000005 L 844.8 436.50000000000006 L 115.19999999999999 436.50000000000006 L 115.19999999999999 376.06500000000005 A 10.665000000000001 10.665000000000001 0 0 1 125.865 365.40000000000003 Z" fill="#70AD47" stroke="#FFFFFF" stroke-width="2"/>
<path d="M 125.865 452.70000000000005 L 834.135 452.70000000000005 A 10.665000000000001 10.665000000000001 0 0 1 844.8 463.36500000000007 L 844.8 523.8000000000001 L 115.19999999999999 523.8000000000001 L 115.19999999999999 463.36500000000007 A 10.665000000000001 10.665000000000001 0 0 1 125.865 452.70000000000005 Z" fill="#264478" stroke="#FFFFFF" stroke-width="2"/>
</svg>
