<svg xmlns="http://www.w3.org/2000/svg" width="960" height="540" viewBox="0 0 960 540">
<ellipse cx="105.6" cy="51.75" rx="14.220000000000002" ry="14.220000000000002" fill="#ED7D31" stroke="#FFFFFF" stroke-width="2"/>
<rect x="192" y="16.2" width="710.4" height="71.10000000000001" rx="8" ry="8" fill="#ED7D31" stroke="#FFFFFF" stroke-width="2"/>
<ellipse cx="105.6" cy="139.05" rx="14.220000000000002" ry="14.220000000000002" fill="#A5A5A5" stroke="#FFFFFF" stroke-width="2"/>
<rect x="192" y="103.50000000000001" width="710.4" height="71.10000000000001" rx="8" ry="8" fill="#A5A5A5" stroke="#FFFFFF" stroke-width="2"/>
<ellipse cx="105.6" cy="226.35000000000002" rx="14.220000000000002" ry="14.220000000000002" fill="#FFC000" stroke="#FFFFFF" stroke-width="2"/>
<rect x="192" y="190.8" width="710.4" height="71.10000000000001" rx="8" ry="8" fill="#FFC000" stroke="#FFFFFF" stroke-width="2"/>
<ellipse cx="105.6" cy="313.65000000000003" rx="14.220000000000002" ry="14.220000000000002" fill="#5B9BD5" stroke="#FFFFFF" stroke-width="2"/>
<rect x="192" y="278.1" width="710.4" height="71.10000000000001" rx="8" ry="8" fill="#5B9BD5" stroke="#FFFFFF" stroke-width="2"/>
<ellipse cx="105.6" cy="400.95000000000005" rx="14.220000000000002" ry="14.220000000000002" fill="#70AD47" stroke="#FFFFFF" stroke-width="2"/>
<rect x="192" y="365.40000000000003" width="710.4" height="71.10000000000001" rx="8" ry="8" fill="#70AD47" stroke="#FFFFFF" stroke-width="2"/>
<ellipse cx="105.6" cy="488.25000000000006" rx="14.220000000000002" ry="14.220000000000002" fill="#264478" stroke="#FFFFFF" stroke-width="2"/>
<rect x="192" y="452.70000000000005" width="710.4" height="71.10000000000001" rx="8" ry="8" fill="#264478" stroke="#FFFFFF" stroke-width="2"/>
</svg>
