<svg xmlns="http://www.w3.org/2000/svg" width="960" height="540" viewBox="0 0 960 540">
<rect x="48" y="21.6" width="288" height="64.8" rx="6" ry="6" fill="#ED7D31" stroke="#FFFFFF" stroke-width="2"/>
<rect x="384" y="21.6" width="528" height="64.8" rx="2" ry="2" fill="#FFFFFF" stroke="#ED7D31" stroke-width="2"/>
<rect x="48" y="108" width="288" height="64.8" rx="6" ry="6" fill="#A5A5A5" stroke="#FFFFFF" stroke-width="2"/>
<rect x="384" y="108" width="528" height="64.8" rx="2" ry="2" fill="#FFFFFF" stroke="#A5A5A5" stroke-width="2"/>
<rect x="48" y="194.4" width="288" height="64.8" rx="6" ry="6" fill="#FFC000" stroke="#FFFFFF" stroke-width="2"/>
<rect x="384" y="194.4" width="528" height="64.8" rx="2" ry="2" fill="#FFFFFF" stroke="#FFC000" stroke-width="2"/>
<rect x="48" y="280.80000000000007" width="288" height="64.8" rx="6" ry="6" fill="#5B9BD5" stroke="#FFFFFF" stroke-width="2"/>
<rect x="384" y="280.80000000000007" width="528" height="64.8" rx="2" ry="2" fill="#FFFFFF" stroke="#5B9BD5" stroke-width="2"/>
<rect x="48" y="367.20000000000005" width="288" height="64.8" rx="6" ry="6" fill="#70AD47" stroke="#FFFFFF" stroke-width="2"/>
<rect x="384" y="367.20000000000005" width="528" height="64.8" rx="2" ry="2" fill="#FFFFFF" stroke="#70AD47" stroke-width="2"/>
<rect x="48" y="453.6" width="288" height="64.8" rx="6" ry="6" fill="#264478" stroke="#FFFFFF" stroke-width="2"/>
<rect x="384" y="453.6" width="528" height="64.8" rx="2" ry="2" fill="#FFFFFF" stroke="#264478" stroke-width="2"/>
</svg>
